<?xml version="1.0" encoding="UTF-8"?>
<svg enable-background="new 0 0 128 128" version="1.1" viewBox="0 0 128 128" xml:space="preserve" xmlns="http://www.w3.org/2000/svg" xmlns:xlink="http://www.w3.org/1999/xlink">
<style type="text/css">
	.st0{fill:none;}
	.st1{fill:#2C973E;}
	.st2{fill:url(#m);}
	.st3{fill:url(#h);}
	.st4{fill:url(#g);}
	.st5{fill:#FFC20E;}
	.st6{fill:url(#f);}
	.st7{fill:url(#e);}
	.st8{fill:url(#d);}
	.st9{fill:url(#c);}
	.st10{fill:url(#b);}
	.st11{fill:url(#a);}
	.st12{fill:url(#w);}
	.st13{fill:url(#v);}
	.st14{fill:url(#u);}
	.st15{fill:url(#t);}
	.st16{fill:url(#s);}
	.st17{fill:url(#r);}
	.st18{fill:url(#q);}
	.st19{fill:url(#p);}
	.st20{fill:url(#o);}
	.st21{fill:url(#n);}
	.st22{fill:url(#l);}
	.st23{fill:url(#k);}
	.st24{opacity:0.55;}
	.st25{fill:#FFDD00;}
	.st26{fill:url(#i);}
	.st27{fill:#EC272A;}
</style>
<pattern id="j" y="128" width="446.6" height="259.2" overflow="visible" patternUnits="userSpaceOnUse" viewBox="146.7 -377.9 446.6 259.2">
		<rect class="st0" x="146.7" y="-377.9" width="446.6" height="259.2"/>
			<rect class="st0" x="146.7" y="-377.9" width="446.6" height="259.2"/>
				<path class="st1" d="m525.5-309.4c5.5-4.6 10.7-12.5 11.4-22.8 1.1 10.2 3.2 18.1 8.2 24 0 0-6.3-3.1-8.6-9.2-2.9 5.3-11 8-11 8z"/>
				<path class="st1" d="m511.5-258.5c1.2-6 6.3-11.2 12.9-13.7-2.7 7-1.7 13.8 2.2 19.8-0.9-7.8 1.5-13.2 5.8-18-1.4 4.8-1.2 9.3 1.1 13.9-0.9-8.5 6.2-12.8 15.6-18.4 12.7-7.6 17.3-16 19.2-27.2-3.5 6.9-9.9 13.1-27.9 17.3-22.3 4.9-30.3 12.2-28.9 26.3z"/>
					<linearGradient id="m" x1="-38892" x2="-38915" y1="-54024" y2="-54016" gradientTransform="translate(39407 53676)" gradientUnits="userSpaceOnUse">
					<stop stop-color="#FAA61A" offset=".2331"/>
					<stop stop-color="#FFC20E" offset=".7607"/>
				</linearGradient>
				<path class="st2" d="m511.8-350.8c-4.7 4.6-6.9 12.2-7.3 21.7-0.5 12.5-5.4 17.7-13.3 18.5 11.8-4.6 4.4-17.1 7.9-25.8-6.4 4.8-4.4 20.7-17.6 21.4 9.8-3.2 2.8-16.7 9.3-24.5-7.8 0.1-11.4-6.1-21.5-3.2 4.7-3.6 10-5.9 18.8-5.9-6.3-3.9-9-8.6-11.3-15.3 10.1 10.5 24.8 14.6 35 13.1z"/>
					<radialGradient id="h" cx="-38813" cy="-54054" r="133.31" gradientTransform="translate(39407 53676)" gradientUnits="userSpaceOnUse">
					<stop stop-color="#58AB40" offset=".3479"/>
					<stop stop-color="#80C342" offset=".7607"/>
				</radialGradient>
				<path class="st3" d="m629.1-385.2c29.4-4 46.2-20.8 49.1-36.6-3.9 9.3-13 15.2-23.6 18.6 10.6-14 7.2-31.9 21.1-41.7-10.4 11-7.2 24.5-14.9 36.7 12.3-6.9 14.1-16.7 17-27.1 4.4-15.8 11.5-20.1 17.2-22.2-11.7-0.5-28.7 4.5-36.8 20.1-8.6 16.5-1.4 34.4-22.5 43.8 9.6-8.1 14.7-19.5 8.7-34.4 2.3 21.9-20.6 25.5-24.3 40.5-0.6-11.5 7.2-21.2 14.5-25.9-10.3 3.4-19.2 9-23.4 21.8-6.9-21.4 5.3-38.5 12.9-38.5 2.6 0 4.5 1.7 4.5 4.2 0 6.4-11.6 6.4-14.6 18.9 5.3-10.8 25.5-8.9 25.5-20.8 0-9.7-13.6-14-22.4-8 6.4-8.3 21.3-8.6 25.6 1.4 0.7-4.3-1.3-10.8-7.5-13.1-7-2.7-13.5 2.5-13.5 2.5 7.6-11 20.9-3.7 34.1-3.9 10.9-0.2 18.1-5.8 21.3-11.2-3 1.5-4.6 1.9-7.6 2 6.3-3.9 10.8-12.8 9-21.5-1.3 6.2-8.6 10.7-22.4 11.6-15.6 1.1-23.8 3.6-29.1 9.3 11.2-5 28.9 1.9 41-6-7.5 8.5-23.9 6.1-35.7 8-20.7 3.3-33.3 38.3-31.7 53.6-5.7-23.4 9.5-36.2 12.8-49.1 3.6-14.1-3.4-23.8-9.9-28.8 10.3 15.4-7.4 24.6-4.6 44.4-5.2-19.2 4.4-24.7 4.4-34.6 0-9.8-8.6-13-10.3-25.5-1.7 12.6-10.3 15.8-10.3 25.5 0 9.9 9.7 15.4 4.4 34.6 2.8-19.7-14.9-29-4.6-44.4-6.6 5-13.6 14.7-9.9 28.8 3.3 12.9 18.4 25.7 12.8 49.1 1.6-15.3-11-50.3-31.7-53.6-11.8-1.9-28.3 0.6-35.7-8 12 7.9 29.8 1.1 41 6-5.3-5.7-13.5-8.2-29.1-9.3-13.8-1-21.1-5.4-22.4-11.6-1.8 8.7 2.8 17.6 9 21.5-3-0.1-4.7-0.5-7.6-2 3.2 5.4 10.4 11 21.3 11.2 13.1 0.2 26.4-7.1 34.1 3.9 0 0-6.5-5.2-13.5-2.5-6.1 2.4-8.1 8.8-7.5 13.1 4.3-10 19.2-9.8 25.5-1.4-8.7-6.1-22.4-1.8-22.4 8 0 11.9 20.2 9.9 25.6 20.8-3-12.4-14.6-12.4-14.6-18.9 0-2.5 1.9-4.2 4.5-4.2 7.6 0 19.8 17.1 12.9 38.5-4.2-12.8-13.1-18.5-23.4-21.8 7.4 4.7 15.2 14.4 14.5 25.9-3.7-14.9-26.6-18.5-24.3-40.5-6 14.9-0.9 26.4 8.7 34.4-21-9.4-13.9-27.3-22.5-43.8-8.1-15.6-25.1-20.6-36.8-20.1 5.7 2.1 12.8 6.3 17.2 22.2 2.9 10.5 4.8 20.3 17 27.1-7.7-12.3-4.5-25.7-14.9-36.7 13.9 9.8 10.5 27.7 21.1 41.7-10.6-3.4-19.7-9.4-23.6-18.6 2.9 15.8 19.7 32.5 49.1 36.6-30.3 1.3-36.2-15.6-51.5-16.2-9.7-0.4-18.1 8.4-28 13.7 12.7-3.1 31.7-11.3 41.7 2.1 0 0-6.2-5.3-18.3-3.7-12.3 1.6-23.5 9.4-54.1 11.4 30.7 2 41.8 9.8 54.1 11.4 12.1 1.5 18.3-3.7 18.3-3.7-10.1 13.5-29.1 5.2-41.2 2.1 9.9 5.3 18.4 14.1 28 13.7 15.3-0.6 21.1-17.5 51.5-16.2-29.4 4-46.2 20.8-49.1 36.5 3.9-9.2 13-15.2 23.6-18.6-10.6 14-7.2 31.9-21.1 41.7 10.4-11 7.2-24.5 14.9-36.7-12.3 6.9-14.1 16.7-17 27.1-4.4 15.8-11.5 20.1-17.2 22.2 11.7 0.4 28.7-4.5 36.8-20.1 8.6-16.5 1.4-34.4 22.5-43.8-9.6 8.1-14.7 19.5-8.7 34.4-2.3-21.9 20.6-25.5 24.3-40.5 0.6 11.5-7.2 21.2-14.5 25.9 10.3-3.4 19.2-9 23.4-21.8 6.9 21.4-5.3 38.5-12.9 38.5-2.6 0-4.5-1.7-4.5-4.2 0-6.5 11.6-6.5 14.6-18.9-5.3 10.8-25.6 8.9-25.6 20.8 0 9.7 13.6 14 22.4 8-6.4 8.3-21.3 8.6-25.5-1.4-0.7 4.3 1.3 10.8 7.5 13.1 7 2.7 13.5-2.5 13.5-2.5-7.6 11-20.9 3.7-34.1 3.9-10.9 0.2-18.1 5.8-21.3 11.2 3-1.5 4.6-1.9 7.6-2-6.3 3.9-10.8 12.8-9 21.5 1.3-6.2 8.6-10.7 22.4-11.6 15.6-1.1 23.8-3.6 29.1-9.3-11.2 5-28.9-1.9-41 6 7.5-8.5 23.9-6.1 35.7-8 20.7-3.3 33.3-38.3 31.7-53.6 5.7 23.4-9.5 36.2-12.8 49.1-3.6 14.1 3.4 23.8 9.9 28.8-10.3-15.4 7.4-24.6 4.6-44.4 5.2 19.2-4.4 24.7-4.4 34.6 0 9.8 8.6 13 10.3 25.5 1.7-12.6 10.3-15.8 10.3-25.5 0-9.9-9.7-15.4-4.4-34.6-2.8 19.7 14.9 29 4.6 44.4 6.6-5 13.6-14.7 9.9-28.8-3.3-12.9-18.4-25.7-12.8-49.1-1.6 15.3 11 50.3 31.7 53.6 11.8 1.9 28.3-0.6 35.7 8-12.1-7.9-29.8-1.1-41-6 5.3 5.7 13.5 8.2 29.1 9.3 13.8 1 21.1 5.4 22.4 11.6 1.8-8.7-2.8-17.6-9-21.5 3 0.1 4.7 0.5 7.6 2-3.2-5.4-10.4-11-21.3-11.2-13.1-0.2-26.4 7.1-34.1-3.9 0 0 6.5 5.2 13.5 2.5 6.1-2.4 8.1-8.8 7.5-13.1-4.3 10-19.2 9.8-25.6 1.4 8.7 6.1 22.4 1.8 22.4-8 0-11.9-20.2-9.9-25.5-20.8 3 12.4 14.6 12.4 14.6 18.9 0 2.5-1.9 4.2-4.5 4.2-7.6 0-19.8-17.1-12.9-38.5 4.2 12.8 13.1 18.5 23.4 21.8-7.4-4.7-15.2-14.4-14.5-25.9 3.7 14.9 26.6 18.5 24.3 40.5 6-14.9 0.9-26.4-8.7-34.4 21 9.4 13.9 27.3 22.5 43.8 8.1 15.6 25.1 20.6 36.8 20.1-5.7-2.1-12.8-6.3-17.2-22.2-2.9-10.5-4.8-20.3-17-27.1 7.7 12.3 4.5 25.7 14.9 36.7-13.9-9.8-10.5-27.7-21.1-41.7 10.6 3.4 19.7 9.4 23.6 18.6-2.9-15.8-19.7-32.5-49.1-36.5 30.3-1.3 36.2 15.6 51.5 16.2 9.7 0.4 18.1-8.4 28-13.7-12.1 3.1-31.1 11.3-41.2-2.1 0 0 6.2 5.3 18.3 3.7 12.3-1.6 23.5-9.4 54.1-11.4-30.7-2-41.8-9.8-54.1-11.4-12.1-1.5-18.3 3.7-18.3 3.7 10.1-13.5 29.1-5.2 41.2-2.1-9.9-5.3-18.4-14.1-28-13.7-15.8 0.6-21.6 17.5-52 16.2zm33.4 7.3c4.6-1.2 8.6-3.8 14.5-3.8 7.1 0 11.1 2.8 16.7 3.8-5.7 1-9.6 3.8-16.7 3.8-5.9-0.1-9.9-2.6-14.5-3.8zm-72.2 90.3c0-5.1 3-8.4 3-12.1 0 3.7 3 7 3 12.1 0 4.6-2.3 6.7-3 11.4-0.8-4.8-3-6.8-3-11.4zm-66.2-90.3c-4.6 1.2-8.6 3.8-14.5 3.8-7.1 0-11.1-2.8-16.7-3.8 5.7-1 9.6-3.8 16.7-3.8 5.9 0 9.9 2.5 14.5 3.8zm72.2-90.3c0 5.1-3 8.4-3 12.1 0-3.7-3-7-3-12.1 0-4.6 2.2-6.7 3-11.4 0.8 4.7 3 6.8 3 11.4zm42.1 90.3c-9.9 0-24.1 5-35 3 3.4 2.1 5 3.7 7.5 6.7-4.4-0.4-6.8-0.8-10.1-2.3 2.7 6 3.2 9.4 3.7 15.4-3.1-3.6-4.6-5.7-6.6-10.6 0.7 12.4-4.3 15.2-4.6 31.8-0.4-16.5-5.3-19.3-4.6-31.8-1.9 4.9-3.5 7.1-6.6 10.6 0.5-6 1.1-9.4 3.7-15.4-3.4 1.5-5.7 1.9-10.1 2.3 2.5-3.1 4-4.6 7.5-6.7-10.9 2-25-3-35-3 9.9 0 24.1-5 35-3-3.4-2.1-5-3.7-7.5-6.7 4.4 0.4 6.8 0.8 10.1 2.3-2.7-6-3.2-9.4-3.7-15.4 3.1 3.6 4.6 5.7 6.6 10.6-0.7-12.4 4.3-15.2 4.6-31.8 0.4 16.5 5.3 19.3 4.6 31.8 1.9-4.9 3.5-7.1 6.6-10.6-0.5 6-1.1 9.4-3.7 15.4 3.4-1.5 5.7-1.9 10.1-2.3-2.5 3.1-4 4.6-7.5 6.7 10.9-2 25 3 35 3z"/>
					<linearGradient id="g" x1="71521" x2="71521" y1="-53968" y2="-53940" gradientTransform="matrix(-1 0 0 1 72085 53676)" gradientUnits="userSpaceOnUse">
					<stop stop-color="#FAA61A" offset=".2331"/>
					<stop stop-color="#FFC20E" offset=".7607"/>
				</linearGradient>
				<path class="st4" d="m538.4-256.7c2.6-13.8 25.4-16.3 30.3-34.1 3.8 19.1 21.3 19.9 21.5 33.1-3.2-7.8-10.8-5.8-15.9-12.1 0.8 6.2 4.6 11.9 12.4 15.1-7.7 1.1-15.6-1.8-19.1-9.6-2.6 4.2-2.8 8.4-0.7 13.9-4.7-3.6-7.5-9.3-5.7-16.6-7.2 7.4-17.8 3.3-22.8 10.3z"/>
				<path class="st5" d="m611.5-377.9c-4.3 0.7-9.4 3.2-14.1 1.2 2.3 1.8 1.1 3.5 2.5 5.2-1.9-1.4-3.5-0.5-5-2.7 1.5 5.3-0.5 8.1-1.6 14.1-1.1-6-3.2-8.8-1.6-14.1-1.5 2.2-3.1 1.4-5 2.7 1.4-1.7 0.2-3.4 2.5-5.2-4.7 2-9.9-0.6-14.1-1.2 4.3-0.7 9.4-3.2 14.1-1.2-2.3-1.8-1.1-3.5-2.5-5.2 1.9 1.4 3.5 0.5 5 2.7-1.5-5.3 0.5-8.1 1.6-14.1 1.1 6 3.2 8.8 1.6 14.1 1.5-2.2 3.1-1.4 5-2.7-1.4 1.7-0.2 3.4-2.5 5.2 4.7-2 9.9 0.5 14.1 1.2z"/>
					<linearGradient id="f" x1="71860" x2="71836" y1="-54024" y2="-54016" gradientTransform="matrix(-1 0 0 1 72085 53676)" gradientUnits="userSpaceOnUse">
					<stop stop-color="#FAA61A" offset=".2331"/>
					<stop stop-color="#FFC20E" offset=".7607"/>
				</linearGradient>
				<path class="st6" d="m228.2-350.8c4.7 4.6 6.9 12.2 7.3 21.7 0.5 12.5 5.4 17.7 13.3 18.5-11.8-4.6-4.4-17.1-7.9-25.8 6.4 4.8 4.4 20.7 17.6 21.4-9.8-3.2-2.8-16.7-9.3-24.5 7.8 0.1 11.4-6.1 21.5-3.2-4.7-3.6-10-5.9-18.8-5.9 6.3-3.9 9-8.6 11.3-15.3-10.1 10.5-24.9 14.6-35 13.1z"/>
				<path class="st1" d="m214.5-309.4c-5.5-4.6-10.7-12.5-11.4-22.8-1.1 10.2-3.2 18.1-8.2 24 0 0 6.3-3.1 8.6-9.2 2.9 5.3 11 8 11 8z"/>
				<path class="st1" d="m228.5-258.5c-1.2-6-6.3-11.2-12.9-13.7 2.7 7 1.7 13.8-2.2 19.8 0.9-7.8-1.5-13.2-5.8-18 1.4 4.8 1.2 9.3-1.1 13.9 0.9-8.5-6.2-12.8-15.6-18.4-12.7-7.6-17.3-16-19.3-27.2 3.5 6.9 9.9 13.1 27.9 17.3 22.3 4.9 30.4 12.2 29 26.3z"/>
					<linearGradient id="e" x1="-39231" x2="-39231" y1="-53968" y2="-53940" gradientTransform="translate(39407 53676)" gradientUnits="userSpaceOnUse">
					<stop stop-color="#FAA61A" offset=".2331"/>
					<stop stop-color="#FFC20E" offset=".7607"/>
				</linearGradient>
				<path class="st7" d="m201.5-256.7c-2.6-13.8-25.4-16.3-30.3-34.1-3.8 19.1-21.3 19.9-21.5 33.1 3.2-7.8 10.8-5.8 15.9-12.1-0.8 6.2-4.6 11.9-12.4 15.1 7.7 1.1 15.6-1.8 19.1-9.6 2.6 4.2 2.8 8.4 0.7 13.9 4.7-3.6 7.5-9.3 5.7-16.6 7.2 7.4 17.9 3.3 22.8 10.3z"/>
					<radialGradient id="d" cx="-39260" cy="-54054" r="133.42" gradientTransform="translate(39407 53676)" gradientUnits="userSpaceOnUse">
					<stop stop-color="#58AB40" offset=".3479"/>
					<stop stop-color="#80C342" offset=".7607"/>
				</radialGradient>
				<path class="st8" d="m182.5-385.2c29.4-4 46.2-20.8 49.1-36.6-3.9 9.3-13 15.2-23.6 18.6 10.6-14 7.2-31.9 21.1-41.7-10.4 11-7.2 24.5-14.9 36.7 12.3-6.9 14.1-16.7 17-27.1 4.4-15.8 11.5-20.1 17.2-22.2-11.7-0.5-28.7 4.5-36.8 20.1-8.6 16.5-1.4 34.4-22.5 43.8 9.6-8.1 14.7-19.5 8.7-34.4 2.3 21.9-20.6 25.5-24.3 40.5-0.6-11.5 7.2-21.2 14.5-25.9-10.3 3.4-19.2 9-23.4 21.8-6.9-21.4 5.3-38.5 12.9-38.5 2.6 0 4.5 1.7 4.5 4.2 0 6.4-11.6 6.4-14.6 18.9 5.5-10.8 25.7-8.9 25.7-20.8 0-9.7-13.6-14-22.4-8 6.4-8.3 21.3-8.6 25.6 1.4 0.7-4.3-1.3-10.8-7.5-13.1-7-2.7-13.5 2.5-13.5 2.5 7.6-11 20.9-3.7 34.1-3.9 10.9-0.2 18.1-5.8 21.3-11.2-3 1.5-4.6 1.9-7.6 2 6.3-3.9 10.8-12.8 9-21.5-1.3 6.2-8.6 10.7-22.4 11.6-15.6 1.1-23.8 3.6-29.1 9.3 11.2-5 28.9 1.9 41-6-7.5 8.5-23.9 6.1-35.7 8-20.7 3.3-33.3 38.3-31.7 53.6-5.7-23.4 9.5-36.2 12.8-49.1 3.6-14.1-3.4-23.8-9.9-28.8 10.3 15.4-7.4 24.6-4.6 44.4-5.2-19.2 4.4-24.7 4.4-34.6 0-9.8-8.6-13-10.3-25.5-1.7 12.6-10.3 15.8-10.3 25.5 0 9.9 9.7 15.4 4.4 34.6 2.8-19.7-14.9-29-4.6-44.4-6.6 5-13.6 14.7-9.9 28.8 3.3 12.9 18.4 25.7 12.8 49.1 1.6-15.3-11-50.3-31.7-53.6-11.8-1.9-28.3 0.6-35.7-8 12 7.9 29.8 1.1 41 6-5.3-5.7-13.5-8.2-29.1-9.3-13.8-1-21.1-5.4-22.4-11.6-1.8 8.7 2.8 17.6 9 21.5-3-0.1-4.7-0.5-7.6-2 3.2 5.4 10.4 11 21.3 11.2 13.1 0.2 26.4-7.1 34.1 3.9 0 0-6.5-5.2-13.5-2.5-6.1 2.4-8.1 8.8-7.5 13.1 4.3-10 19.2-9.8 25.5-1.4-8.7-6.1-22.4-1.8-22.4 8 0 11.9 20.2 9.9 25.6 20.8-3-12.4-14.6-12.4-14.6-18.9 0-2.5 1.9-4.2 4.5-4.2 7.6 0 19.8 17.1 12.9 38.5-4.2-12.8-13.1-18.5-23.4-21.8 7.4 4.7 15.2 14.4 14.5 25.9-3.5-15-26.4-18.5-24.1-40.5-6 14.9-0.9 26.4 8.7 34.4-21-9.4-13.9-27.3-22.5-43.8-8.1-15.6-25.1-20.6-36.8-20.1 5.7 2.1 12.8 6.3 17.2 22.2 2.9 10.5 4.8 20.3 17 27.1-7.6-12.2-4.5-25.6-14.8-36.6 13.9 9.8 10.5 27.7 21.1 41.7-10.6-3.4-19.7-9.4-23.6-18.6 2.9 15.8 19.7 32.5 49.1 36.6-30.3 1.2-36.2-15.7-51.4-16.3-9.7-0.4-18.1 8.4-28 13.7 12.1-3.1 31.1-11.3 41.2 2.1 0 0-6.2-5.3-18.3-3.7-12.3 1.6-23.5 9.4-54.1 11.4 30.7 2 41.8 9.8 54.1 11.4 12.1 1.5 18.3-3.7 18.3-3.7-10.1 13.5-29.1 5.2-41.2 2.1 9.9 5.3 18.4 14.1 28 13.7 15.3-0.6 21.1-17.5 51.5-16.2-29.4 4-46.2 20.8-49.1 36.5 3.9-9.2 13-15.2 23.6-18.6-10.6 14-7.2 31.9-21.1 41.7 10.4-11 7.2-24.5 14.9-36.7-12.3 6.9-14.1 16.7-17 27.1-4.4 15.8-11.5 20.1-17.2 22.2 11.7 0.4 28.7-4.5 36.8-20.1 8.6-16.5 1.4-34.4 22.5-43.8-9.6 8.1-14.7 19.5-8.7 34.4-2.3-21.9 20.6-25.5 24.3-40.5 0.6 11.5-7.2 21.2-14.5 25.9 10.3-3.4 19.2-9 23.4-21.8 6.9 21.4-5.3 38.5-12.9 38.5-2.6 0-4.5-1.7-4.5-4.2 0-6.5 11.6-6.5 14.6-18.9-5.3 10.8-25.6 8.9-25.6 20.8 0 9.7 13.6 14 22.4 8-6.4 8.3-21.3 8.6-25.5-1.4-0.7 4.3 1.3 10.8 7.5 13.1 7 2.7 13.5-2.5 13.5-2.5-7.6 11-20.9 3.7-34.1 3.9-10.9 0.2-18.1 5.8-21.3 11.2 3-1.5 4.6-1.9 7.6-2-6.3 3.9-10.8 12.8-9 21.5 1.3-6.2 8.6-10.7 22.4-11.6 15.6-1.1 23.8-3.6 29.1-9.3-11.2 5-28.9-1.9-41 6 7.5-8.5 23.9-6.1 35.7-8 20.7-3.3 33.3-38.3 31.7-53.6 5.7 23.4-9.5 36.2-12.8 49.1-3.6 14.1 3.4 23.8 9.9 28.8-10.3-15.4 7.4-24.6 4.6-44.4 5.2 19.2-4.4 24.7-4.4 34.6 0 9.8 8.6 13 10.3 25.5 1.7-12.6 10.3-15.8 10.3-25.5 0-9.9-9.7-15.4-4.4-34.6-2.8 19.7 14.9 29 4.6 44.4 6.6-5 13.6-14.7 9.9-28.8-3.3-12.9-18.4-25.7-12.8-49.1-1.6 15.3 11 50.3 31.7 53.6 11.8 1.9 28.3-0.6 35.7 8-12.1-7.9-29.8-1.1-41-6 5.3 5.7 13.5 8.2 29.1 9.3 13.8 1 21.1 5.4 22.4 11.6 1.8-8.7-2.8-17.6-9-21.5 3 0.1 4.7 0.5 7.6 2-3.2-5.4-10.4-11-21.3-11.2-13.1-0.2-26.4 7.1-34.1-3.9 0 0 6.5 5.2 13.5 2.5 6.1-2.4 8.1-8.8 7.5-13.1-4.3 10-19.2 9.8-25.6 1.4 8.7 6.1 22.4 1.8 22.4-8 0-11.9-20.2-9.9-25.5-20.8 3 12.4 14.6 12.4 14.6 18.9 0 2.5-1.9 4.2-4.5 4.2-7.6 0-19.8-17.1-12.9-38.5 4.2 12.8 13.1 18.5 23.4 21.8-7.4-4.7-15.2-14.4-14.5-25.9 3.7 14.9 26.6 18.5 24.3 40.5 6-14.9 0.9-26.4-8.7-34.4 21 9.4 13.9 27.3 22.5 43.8 8.1 15.6 25.1 20.6 36.8 20.1-5.7-2.1-12.8-6.3-17.2-22.2-2.9-10.5-4.8-20.3-17-27.1 7.7 12.3 4.5 25.7 14.9 36.7-13.9-9.8-10.5-27.7-21.1-41.7 10.6 3.4 19.7 9.4 23.6 18.6-2.9-15.8-19.7-32.5-49.1-36.5 30.3-1.3 36.2 15.6 51.5 16.2 9.7 0.4 18.1-8.4 28-13.7-12.1 3.1-31.1 11.3-41.2-2.1 0 0 6.2 5.3 18.3 3.7 12.3-1.6 23.5-9.4 54.1-11.4-30.7-2-41.8-9.8-54.1-11.4-12.1-1.5-18.3 3.7-18.3 3.7 10.1-13.5 29.1-5.2 41.2-2.1-9.9-5.3-18.4-14.1-28-13.7-15.9 0.6-21.8 17.5-52.1 16.2zm33.4 7.3c4.6-1.2 8.6-3.8 14.5-3.8 7.1 0 11.1 2.8 16.7 3.8-5.7 1-9.6 3.8-16.7 3.8-5.9-0.1-9.9-2.6-14.5-3.8zm-72.3 90.3c0-5.1 3-8.4 3-12.1 0 3.7 3 7 3 12.1 0 4.6-2.3 6.7-3 11.4-0.7-4.8-3-6.8-3-11.4zm-66.1-90.3c-4.6 1.2-8.6 3.8-14.5 3.8-7.1 0-11.1-2.8-16.7-3.8 5.7-1 9.6-3.8 16.7-3.8 5.8 0 9.8 2.5 14.5 3.8zm72.2-90.3c0 5.1-3 8.4-3 12.1 0-3.7-3-7-3-12.1 0-4.6 2.2-6.7 3-11.4 0.7 4.7 3 6.8 3 11.4zm42 90.3c-9.9 0-24.1 5-35 3 3.4 2.1 5 3.7 7.5 6.7-4.4-0.4-6.8-0.8-10.1-2.3 2.7 6 3.2 9.4 3.7 15.4-3.1-3.6-4.6-5.7-6.6-10.6 0.7 12.4-4.3 15.2-4.6 31.8-0.4-16.5-5.3-19.3-4.6-31.8-1.9 4.9-3.5 7.1-6.6 10.6 0.5-6 1.1-9.4 3.7-15.4-3.4 1.5-5.7 1.9-10.1 2.3 2.5-3.1 4-4.6 7.5-6.7-10.9 2-25-3-35-3 9.9 0 24.1-5 35-3-3.4-2.1-5-3.7-7.5-6.7 4.4 0.4 6.8 0.8 10.1 2.3-2.7-6-3.2-9.4-3.7-15.4 3.1 3.6 4.6 5.7 6.6 10.6-0.7-12.4 4.3-15.2 4.6-31.8 0.4 16.5 5.3 19.3 4.6 31.8 1.9-4.9 3.5-7.1 6.6-10.6-0.5 6-1.1 9.4-3.7 15.4 3.4-1.5 5.7-1.9 10.1-2.3-2.5 3.1-4 4.6-7.5 6.7 10.9-2 25.1 3 35 3z"/>
				<path class="st5" d="m164.9-377.9c-4.3 0.7-9.4 3.2-14.1 1.2 2.3 1.8 1.1 3.5 2.5 5.2-1.9-1.4-3.5-0.5-5-2.7 1.5 5.3-0.5 8.1-1.6 14.1-1.1-6-3.2-8.8-1.6-14.1-1.5 2.2-3.1 1.4-5 2.7 1.4-1.7 0.2-3.4 2.5-5.2-4.7 2-9.9-0.6-14.1-1.2 4.3-0.7 9.4-3.2 14.1-1.2-2.3-1.8-1.1-3.5-2.5-5.2 1.9 1.4 3.5 0.5 5 2.7-1.5-5.3 0.5-8.1 1.6-14.1 1.1 6 3.2 8.8 1.6 14.1 1.5-2.2 3.1-1.4 5-2.7-1.4 1.7-0.2 3.4-2.5 5.2 4.7-2 9.8 0.5 14.1 1.2z"/>
					<linearGradient id="c" x1="71457" x2="71457" y1="20884" y2="20912" gradientTransform="matrix(-1 0 0 -1 72021 20679)" gradientUnits="userSpaceOnUse">
					<stop stop-color="#FAA61A" offset=".2331"/>
					<stop stop-color="#FFC20E" offset=".7607"/>
				</linearGradient>
				<path class="st9" d="m538.4-240c2.6 13.8 25.4 16.3 30.3 34.1 3.8-19.1 21.3-19.9 21.5-33.1-3.2 7.8-10.8 5.8-15.9 12.1 0.8-6.2 4.6-11.9 12.4-15.1-7.7-1.1-15.6 1.8-19.1 9.6-2.6-4.2-2.8-8.4-0.7-13.9-4.7 3.6-7.5 9.3-5.7 16.6-7.2-7.3-17.8-3.3-22.8-10.3z"/>
				<path class="st1" d="m525.5-187.2c5.5 4.6 10.7 12.5 11.4 22.8 1.1-10.2 3.2-18.1 8.2-24 0 0-6.3 3.1-8.6 9.2-2.9-5.3-11-8-11-8z"/>
				<path class="st1" d="m511.5-238.1c1.2 6 6.3 11.2 12.9 13.7-2.7-7-1.7-13.8 2.2-19.8-0.9 7.8 1.5 13.2 5.8 18-1.4-4.8-1.2-9.3 1.1-13.9-0.9 8.5 6.2 12.8 15.6 18.4 12.7 7.6 17.3 16 19.2 27.2-3.5-6.9-9.9-13.1-27.9-17.3-22.3-5-30.3-12.2-28.9-26.3z"/>
					<radialGradient id="b" cx="-38813" cy="-53795" r="133.35" gradientTransform="translate(39407 53676)" gradientUnits="userSpaceOnUse">
					<stop stop-color="#58AB40" offset=".3479"/>
					<stop stop-color="#80C342" offset=".7607"/>
				</radialGradient>
				<path class="st10" d="m629.1-126c29.4-4 46.2-20.8 49.1-36.6-3.9 9.3-13 15.2-23.6 18.6 10.6-14 7.2-31.9 21.1-41.7-10.4 11-7.2 24.5-14.9 36.7 12.3-6.9 14.1-16.7 17-27.1 4.4-15.8 11.5-20.1 17.2-22.2-11.7-0.4-28.7 4.5-36.8 20.1-8.6 16.5-1.4 34.4-22.5 43.8 9.6-8.1 14.7-19.5 8.7-34.4 2.3 21.9-20.6 25.5-24.3 40.5-0.6-11.5 7.2-21.2 14.5-25.9-10.3 3.4-19.2 9-23.4 21.8-6.9-21.4 5.3-38.5 12.9-38.5 2.6 0 4.5 1.7 4.5 4.2 0 6.4-11.6 6.4-14.6 18.9 5.3-10.8 25.5-8.9 25.5-20.8 0-9.7-13.6-14-22.4-8 6.4-8.3 21.3-8.6 25.6 1.4 0.7-4.3-1.3-10.8-7.5-13.1-7-2.7-13.5 2.5-13.5 2.5 7.6-11 20.9-3.7 34.1-3.9 10.9-0.2 18.1-5.8 21.3-11.2-3 1.5-4.6 1.9-7.6 2 6.3-3.9 10.8-12.8 9-21.5-1.3 6.3-8.6 10.7-22.4 11.6-15.6 1.1-23.8 3.6-29.1 9.3 11.2-5 28.9 1.9 41-6-7.5 8.5-23.9 6.1-35.7 8-20.7 3.3-33.3 38.3-31.7 53.6-5.7-23.4 9.5-36.2 12.8-49.1 3.6-14.1-3.4-23.8-9.9-28.8 10.3 15.4-7.4 24.6-4.6 44.4-5.2-19.2 4.4-24.7 4.4-34.6 0-9.8-8.6-13-10.3-25.5-1.7 12.6-10.3 15.8-10.3 25.5 0 9.9 9.7 15.4 4.4 34.6 2.8-19.7-14.9-29-4.6-44.4-6.6 5-13.6 14.7-9.9 28.8 3.3 12.9 18.4 25.7 12.8 49.1 1.6-15.3-11-50.3-31.7-53.6-11.8-1.9-28.3 0.6-35.7-8 12 7.9 29.8 1.1 41 6-5.3-5.7-13.5-8.2-29.1-9.3-13.8-1-21.1-5.4-22.4-11.6-1.8 8.7 2.8 17.6 9 21.5-3-0.1-4.7-0.5-7.6-2 3.2 5.4 10.4 11 21.3 11.2 13.1 0.2 26.4-7.1 34.1 3.9 0 0-6.5-5.2-13.5-2.5-6.1 2.4-8.1 8.8-7.5 13.1 4.3-10 19.2-9.8 25.5-1.4-8.7-6.1-22.4-1.8-22.4 8 0 11.9 20.2 9.9 25.6 20.8-3-12.4-14.6-12.4-14.6-18.9 0-2.5 1.9-4.2 4.5-4.2 7.6 0 19.8 17.1 12.9 38.5-4.2-12.8-13.1-18.5-23.4-21.8 7.4 4.7 15.2 14.4 14.5 25.9-3.7-14.9-26.6-18.5-24.3-40.5-6 14.9-0.9 26.4 8.7 34.4-21-9.4-13.9-27.3-22.5-43.8-8.1-15.6-25.1-20.6-36.8-20.1 5.7 2.1 12.8 6.3 17.2 22.2 2.9 10.5 4.8 20.3 17 27.1-7.7-12.3-4.5-25.7-14.9-36.7 13.9 9.8 10.5 27.7 21.1 41.7-10.6-3.4-19.7-9.4-23.6-18.6 2.9 15.8 19.7 32.5 49.1 36.6-30.3 1.3-36.2-15.6-51.5-16.2-9.7-0.4-18.1 8.4-28 13.7 12.1-3.1 31.1-11.3 41.2 2.1 0 0-6.2-5.3-18.3-3.7-12.3 1.6-23.5 9.4-54.1 11.4 30.7 2 41.8 9.8 54.1 11.4 12.1 1.5 18.3-3.7 18.3-3.7-10.1 13.5-29.1 5.2-41.2 2.1 9.9 5.3 18.4 14.1 28 13.7 15.3-0.6 21.1-17.5 51.5-16.2-29.4 4-46.2 20.8-49.1 36.5 3.9-9.2 13-15.2 23.6-18.6-10.6 14-7.2 31.9-21.1 41.7 10.4-11 7.2-24.5 14.9-36.7-12.3 6.9-14.1 16.7-17 27.1-4.4 15.8-11.5 20.1-17.2 22.2 11.7 0.4 28.7-4.5 36.8-20.1 8.6-16.5 1.4-34.4 22.5-43.8-9.6 8.1-14.7 19.5-8.7 34.4-2.3-21.9 20.6-25.5 24.3-40.5 0.6 11.5-7.2 21.2-14.5 25.9 10.3-3.4 19.2-9 23.4-21.8 6.9 21.4-5.3 38.5-12.9 38.5-2.6 0-4.5-1.7-4.5-4.2 0-6.5 11.6-6.5 14.6-18.9-5.3 10.8-25.6 8.9-25.6 20.8 0 9.7 13.6 14 22.4 8-6.4 8.3-21.3 8.6-25.5-1.4-0.7 4.3 1.3 10.8 7.5 13.1 7 2.7 13.5-2.5 13.5-2.5-7.6 11-20.9 3.7-34.1 3.9-10.9 0.2-18.1 5.8-21.3 11.2 3-1.5 4.6-1.9 7.6-2-6.3 3.9-10.8 12.8-9 21.5 1.3-6.2 8.6-10.7 22.4-11.6 15.6-1.1 23.8-3.6 29.1-9.3-11.2 5-28.9-1.9-41 6 7.5-8.5 23.9-6.1 35.7-8 20.7-3.3 33.3-38.3 31.7-53.6 5.7 23.4-9.5 36.2-12.8 49.1-3.6 14.1 3.4 23.8 9.9 28.8-10.3-15.4 7.4-24.6 4.6-44.4 5.2 19.2-4.4 24.7-4.4 34.6 0 9.8 8.6 13 10.3 25.5 1.7-12.6 10.3-15.8 10.3-25.5 0-9.9-9.7-15.4-4.4-34.6-2.8 19.7 14.9 29 4.6 44.4 6.6-5 13.6-14.7 9.9-28.8-3.3-12.9-18.4-25.7-12.8-49.1-1.6 15.3 11 50.3 31.7 53.6 11.8 1.9 28.3-0.6 35.7 8-12.1-7.9-29.8-1.1-41-6 5.3 5.7 13.5 8.2 29.1 9.3 13.8 1 21.1 5.4 22.4 11.6 1.8-8.7-2.8-17.6-9-21.5 3 0.1 4.7 0.5 7.6 2-3.2-5.4-10.4-11-21.3-11.2-13.1-0.2-26.4 7.1-34.1-3.9 0 0 6.5 5.2 13.5 2.5 6.1-2.4 8.1-8.8 7.5-13.1-4.3 10-19.2 9.8-25.6 1.4 8.7 6.1 22.4 1.8 22.4-8 0-11.9-20.2-9.9-25.5-20.8 3 12.4 14.6 12.4 14.6 18.9 0 2.5-1.9 4.2-4.5 4.2-7.6 0-19.8-17.1-12.9-38.5 4.2 12.8 13.1 18.5 23.4 21.8-7.4-4.7-15.2-14.4-14.5-25.9 3.7 14.9 26.6 18.5 24.3 40.5 6-14.9 0.9-26.4-8.7-34.4 21 9.4 13.9 27.3 22.5 43.8 8.1 15.6 25.1 20.6 36.8 20.1-5.7-2.1-12.8-6.3-17.2-22.2-2.9-10.5-4.8-20.3-17-27.1 7.7 12.3 4.5 25.7 14.9 36.7-13.9-9.8-10.5-27.7-21.1-41.7 10.6 3.4 19.7 9.4 23.6 18.6-2.9-15.8-19.7-32.5-49.1-36.5 30.3-1.3 36.2 15.6 51.5 16.2 9.7 0.4 18.1-8.4 28-13.7-12.1 3.1-31.1 11.3-41.2-2.1 0 0 6.2 5.3 18.3 3.7 12.3-1.6 23.5-9.4 54.1-11.4-30.7-2-41.8-9.8-54.1-11.4-12.1-1.5-18.3 3.7-18.3 3.7 10.1-13.5 29.1-5.2 41.2-2.1-9.9-5.3-18.4-14.1-28-13.7-15.3 0.6-21.1 17.5-51.5 16.2zm33.4 7.3c4.6-1.2 8.6-3.8 14.5-3.8 7.1 0 11.1 2.8 16.7 3.8-5.7 1-9.6 3.8-16.7 3.8-5.9-0.1-9.9-2.6-14.5-3.8zm-72.2 90.3c0-5.1 3-8.4 3-12.1 0 3.7 3 7 3 12.1 0 4.6-2.3 6.7-3 11.4-0.8-4.8-3-6.9-3-11.4zm-66.2-90.3c-4.6 1.2-8.6 3.8-14.5 3.8-7.1 0-11.1-2.8-16.7-3.8 5.7-1 9.6-3.8 16.7-3.8 5.9 0 9.9 2.5 14.5 3.8zm72.2-90.3c0 5.1-3 8.4-3 12.1 0-3.7-3-7-3-12.1 0-4.6 2.2-6.7 3-11.4 0.8 4.7 3 6.8 3 11.4zm42.1 90.3c-9.9 0-24.1 5-35 3 3.4 2.1 5 3.7 7.5 6.7-4.4-0.4-6.8-0.8-10.1-2.3 2.7 6 3.2 9.4 3.7 15.4-3.1-3.6-4.6-5.7-6.6-10.6 0.7 12.4-4.3 15.2-4.6 31.8-0.4-16.5-5.3-19.3-4.6-31.8-1.9 4.9-3.5 7.1-6.6 10.6 0.5-6 1.1-9.4 3.7-15.4-3.4 1.5-5.7 1.9-10.1 2.3 2.5-3.1 4-4.6 7.5-6.7-10.9 2-25-3-35-3 9.9 0 24.1-5 35-3-3.4-2.1-5-3.7-7.5-6.7 4.4 0.4 6.8 0.8 10.1 2.3-2.7-6-3.2-9.4-3.7-15.4 3.1 3.6 4.6 5.7 6.6 10.6-0.7-12.4 4.3-15.2 4.6-31.8 0.4 16.5 5.3 19.3 4.6 31.8 1.9-4.9 3.5-7.1 6.6-10.6-0.5 6-1.1 9.4-3.7 15.4 3.4-1.5 5.7-1.9 10.1-2.3-2.5 3.1-4 4.6-7.5 6.7 10.9-2 25 3 35 3z"/>
					<linearGradient id="a" x1="-38892" x2="-38915" y1="20842" y2="20850" gradientTransform="matrix(1 0 0 -1 39407 20693)" gradientUnits="userSpaceOnUse">
					<stop stop-color="#FAA61A" offset=".2331"/>
					<stop stop-color="#FFC20E" offset=".7607"/>
				</linearGradient>
				<path class="st11" d="m511.8-145.9c-4.7-4.6-6.9-12.2-7.3-21.7-0.5-12.5-5.4-17.7-13.3-18.5 11.8 4.6 4.4 17.1 7.9 25.8-6.4-4.8-4.4-20.7-17.6-21.4 9.8 3.2 2.8 16.7 9.3 24.5-7.8-0.1-11.4 6.1-21.5 3.2 4.7 3.6 10 5.9 18.8 5.9-6.3 3.9-9 8.6-11.3 15.3 10.1-10.5 24.8-14.6 35-13.1z"/>
				<path class="st5" d="m611.5-118.7c-4.3 0.7-9.4 3.2-14.1 1.2 2.3 1.8 1.1 3.5 2.5 5.2-1.9-1.4-3.5-0.5-5-2.7 1.5 5.3-0.5 8.1-1.6 14.1-1.1-6-3.2-8.8-1.6-14.1-1.5 2.2-3.1 1.4-5 2.7 1.4-1.7 0.2-3.4 2.5-5.2-4.7 2-9.9-0.6-14.1-1.2 4.3-0.7 9.4-3.2 14.1-1.2-2.3-1.8-1.1-3.5-2.5-5.2 1.9 1.4 3.5 0.5 5 2.7-1.5-5.3 0.5-8.1 1.6-14.1 1.1 6 3.2 8.8 1.6 14.1 1.5-2.2 3.1-1.4 5-2.7-1.4 1.7-0.2 3.4-2.5 5.2 4.7-2 9.9 0.5 14.1 1.2z"/>
					<linearGradient id="w" x1="71680" x2="71680" y1="21013" y2="21041" gradientTransform="matrix(-1 0 0 -1 72021 20679)" gradientUnits="userSpaceOnUse">
					<stop stop-color="#FAA61A" offset=".2331"/>
					<stop stop-color="#FFC20E" offset=".7607"/>
				</linearGradient>
				<path class="st12" d="m315.1-369.6c2.6 13.8 25.4 16.3 30.3 34.1 3.8-19.1 21.3-19.9 21.5-33.1-3.2 7.8-10.8 5.8-15.9 12.1 0.8-6.2 4.6-11.9 12.4-15.1-7.7-1.1-15.6 1.8-19.1 9.6-2.6-4.2-2.8-8.4-0.7-13.9-4.7 3.6-7.5 9.3-5.7 16.6-7.2-7.3-17.8-3.3-22.8-10.3z"/>
					<linearGradient id="v" x1="-38944" x2="-38944" y1="21013" y2="21041" gradientTransform="matrix(1 0 0 -1 39343 20679)" gradientUnits="userSpaceOnUse">
					<stop stop-color="#FAA61A" offset=".2331"/>
					<stop stop-color="#FFC20E" offset=".7607"/>
				</linearGradient>
				<path class="st13" d="m424.9-369.6c-2.6 13.8-25.4 16.3-30.3 34.1-3.8-19.1-21.3-19.9-21.5-33.1 3.2 7.8 10.8 5.8 15.9 12.1-0.8-6.2-4.6-11.9-12.4-15.1 7.7-1.1 15.6 1.8 19.1 9.6 2.6-4.2 2.8-8.4 0.7-13.9 4.7 3.6 7.5 9.3 5.7 16.6 7.1-7.3 17.8-3.3 22.8-10.3z"/>
					<linearGradient id="u" x1="71636" x2="71613" y1="-53894" y2="-53886" gradientTransform="matrix(-1 0 0 1 72085 53676)" gradientUnits="userSpaceOnUse">
					<stop stop-color="#FAA61A" offset=".2331"/>
					<stop stop-color="#FFC20E" offset=".7607"/>
				</linearGradient>
				<path class="st14" d="m451.5-221.2c4.7 4.6 6.9 12.2 7.3 21.7 0.5 12.5 5.4 17.7 13.3 18.5-11.8-4.6-4.4-17.1-7.9-25.8 6.4 4.8 4.4 20.7 17.6 21.4-9.8-3.2-2.8-16.7-9.3-24.5 7.8 0.1 11.4-6.1 21.5-3.2-4.7-3.6-10-5.9-18.8-5.9 6.3-3.9 9-8.6 11.3-15.3-10.1 10.5-24.8 14.6-35 13.1z"/>
				<path class="st1" d="m302.2-179.8c5.5-4.6 10.7-12.5 11.4-22.8 1.1 10.2 3.2 18.1 8.2 24 0 0-6.3-3.1-8.6-9.2-2.9 5.3-11 8-11 8z"/>
				<path class="st1" d="m288.2-129c1.2-6 6.3-11.2 12.9-13.7-2.7 7-1.7 13.8 2.2 19.8-0.9-7.8 1.5-13.2 5.8-18-1.4 4.8-1.2 9.3 1.1 13.9-0.9-8.5 6.2-12.8 15.6-18.4 12.7-7.6 17.3-16 19.2-27.2-3.5 6.9-9.9 13.1-27.9 17.3-22.3 5-30.4 12.3-28.9 26.3z"/>
					<linearGradient id="t" x1="-39115" x2="-39138" y1="-53894" y2="-53886" gradientTransform="translate(39407 53676)" gradientUnits="userSpaceOnUse">
					<stop stop-color="#FAA61A" offset=".2331"/>
					<stop stop-color="#FFC20E" offset=".7607"/>
				</linearGradient>
				<path class="st15" d="m288.4-221.2c-4.7 4.6-6.9 12.2-7.3 21.7-0.5 12.5-5.4 17.7-13.3 18.5 11.8-4.6 4.4-17.1 7.9-25.8-6.4 4.8-4.4 20.7-17.6 21.4 9.8-3.2 2.8-16.7 9.3-24.5-7.8 0.1-11.4-6.1-21.5-3.2 4.7-3.6 10-5.9 18.8-5.9-6.3-3.9-9-8.6-11.3-15.3 10.2 10.5 24.9 14.6 35 13.1z"/>
				<path class="st1" d="m437.8-179.8c-5.5-4.6-10.7-12.5-11.4-22.8-1.1 10.2-3.2 18.1-8.2 24 0 0 6.3-3.1 8.6-9.2 2.9 5.3 11 8 11 8z"/>
				<path class="st1" d="m451.8-129c-1.2-6-6.3-11.2-12.9-13.7 2.7 7 1.7 13.8-2.2 19.8 0.9-7.8-1.5-13.2-5.8-18 1.4 4.8 1.2 9.3-1.1 13.9 0.9-8.5-6.2-12.8-15.6-18.4-12.7-7.6-17.3-16-19.3-27.2 3.5 6.9 9.9 13.1 27.9 17.3 22.3 5 30.4 12.3 29 26.3z"/>
					<linearGradient id="s" x1="-39008" x2="-39008" y1="-53839" y2="-53810" gradientTransform="translate(39407 53676)" gradientUnits="userSpaceOnUse">
					<stop stop-color="#FAA61A" offset=".2331"/>
					<stop stop-color="#FFC20E" offset=".7607"/>
				</linearGradient>
				<path class="st16" d="m424.9-127.1c-2.6-13.8-25.4-16.3-30.3-34.1-3.8 19.1-21.3 19.9-21.5 33.1 3.2-7.8 10.8-5.8 15.9-12.1-0.8 6.2-4.6 11.9-12.4 15.1 7.7 1.1 15.6-1.8 19.1-9.6 2.6 4.2 2.8 8.4 0.7 13.9 4.7-3.6 7.5-9.3 5.7-16.6 7.1 7.4 17.8 3.3 22.8 10.3z"/>
				<path class="st1" d="m302.2-316.8c5.5 4.6 10.7 12.5 11.4 22.8 1.1-10.2 3.2-18.1 8.2-24 0 0-6.3 3.1-8.6 9.2-2.9-5.3-11-8-11-8z"/>
				<path class="st1" d="m288.2-367.7c1.2 6 6.3 11.2 12.9 13.7-2.7-7-1.7-13.8 2.2-19.8-0.9 7.8 1.5 13.2 5.8 18-1.4-4.8-1.2-9.3 1.1-13.9-0.9 8.5 6.2 12.8 15.6 18.4 12.7 7.6 17.3 16 19.2 27.2-3.5-6.9-9.9-13.1-27.9-17.3-22.3-5-30.4-12.2-28.9-26.3z"/>
					<radialGradient id="r" cx="-39037" cy="-53925" r="133.51" gradientTransform="translate(39407 53676)" gradientUnits="userSpaceOnUse">
					<stop stop-color="#58AB40" offset=".3479"/>
					<stop stop-color="#80C342" offset=".7607"/>
				</radialGradient>
				<path class="st17" d="m405.8-255.6c29.4-4 46.2-20.8 49.1-36.6-3.9 9.3-13 15.2-23.6 18.6 10.6-14 7.2-31.9 21.1-41.7-10.4 11-7.2 24.5-14.9 36.7 12.3-6.9 14.1-16.7 17-27.1 4.4-15.8 11.5-20.1 17.2-22.2-11.7-0.5-28.7 4.5-36.8 20.1-8.6 16.5-1.4 34.4-22.5 43.8 9.6-8.1 14.7-19.5 8.7-34.4 2.3 21.9-20.6 25.5-24.3 40.5-0.6-11.5 7.2-21.2 14.5-25.9-10.3 3.4-19.2 9-23.4 21.8-6.9-21.4 5.3-38.5 12.9-38.5 2.6 0 4.5 1.7 4.5 4.2 0 6.4-11.6 6.4-14.6 18.9 5.3-10.8 25.5-8.9 25.5-20.8 0-9.7-13.6-14-22.4-8 6.4-8.3 21.3-8.6 25.6 1.4 0.7-4.3-1.3-10.8-7.5-13.1-7-2.7-13.5 2.5-13.5 2.5 7.6-11 20.9-3.7 34.1-3.9 10.9-0.2 18.1-5.8 21.3-11.2-3 1.5-4.6 1.9-7.6 2 6.3-3.9 10.8-12.8 9-21.5-1.3 6.2-8.6 10.7-22.4 11.6-15.6 1.1-23.8 3.6-29.1 9.3 11.2-5 28.9 1.9 41-6-7.5 8.5-23.9 6.1-35.7 8-20.7 3.3-33.3 38.3-31.7 53.6-5.7-23.4 9.5-36.2 12.8-49.1 3.6-14.1-3.4-23.8-9.9-28.8 10.3 15.4-7.4 24.6-4.6 44.4-5.2-19.2 4.4-24.7 4.4-34.6 0-9.8-8.6-13-10.3-25.5-1.7 12.6-10.3 15.8-10.3 25.5 0 9.9 9.7 15.4 4.4 34.6 2.8-19.7-14.9-29-4.6-44.4-6.6 5-13.6 14.7-9.9 28.8 3.3 12.9 18.4 25.7 12.8 49.1 1.6-15.3-11-50.3-31.7-53.6-11.8-1.9-28.3 0.6-35.7-8 12 7.9 29.8 1.1 41 6-5.3-5.7-13.5-8.2-29.1-9.3-13.8-1-21.1-5.4-22.4-11.6-1.8 8.7 2.8 17.6 9 21.5-3-0.1-4.7-0.5-7.6-2 3.2 5.4 10.4 11 21.3 11.2 13.1 0.2 26.4-7.1 34.1 3.9 0 0-6.5-5.2-13.5-2.5-6.1 2.4-8.1 8.8-7.5 13.1 4.3-10 19.2-9.8 25.5-1.4-8.7-6.1-22.4-1.8-22.4 8 0 11.9 20.2 9.9 25.6 20.8-3-12.4-14.6-12.4-14.6-18.9 0-2.5 1.9-4.2 4.5-4.2 7.6 0 19.8 17.1 12.9 38.5-4.2-12.8-13.1-18.5-23.4-21.8 7.4 4.7 15.2 14.4 14.5 25.9-3.7-14.9-26.6-18.5-24.3-40.5-6 14.9-0.9 26.4 8.7 34.4-21-9.4-13.9-27.3-22.5-43.8-8.1-15.6-25.1-20.6-36.8-20.1 5.7 2.1 12.8 6.3 17.2 22.2 2.9 10.5 4.8 20.3 17 27.1-7.7-12.3-4.5-25.7-14.9-36.7 13.9 9.8 10.5 27.7 21.1 41.7-10.6-3.4-19.7-9.4-23.6-18.6 2.9 15.8 19.7 32.5 49.1 36.6-30.3 1.3-36.2-15.6-51.5-16.2-9.7-0.4-18.1 8.4-28 13.7 12.1-3.1 31.1-11.3 41.2 2.1 0 0-6.2-5.3-18.3-3.7-12.3 1.6-23.5 9.4-54.1 11.4 30.7 2 41.8 9.8 54.1 11.4 12.1 1.5 18.3-3.7 18.3-3.7-10.1 13.5-29.1 5.2-41.2 2.1 9.9 5.3 18.4 14.1 28 13.7 15.3-0.6 21.1-17.5 51.5-16.2-29.4 4-46.2 20.8-49.1 36.5 3.9-9.2 13-15.2 23.6-18.6-10.6 14-7.2 31.9-21.1 41.7 10.4-11 7.2-24.5 14.9-36.7-12.3 6.9-14.1 16.7-17 27.1-4.4 15.8-11.5 20.1-17.2 22.2 11.7 0.4 28.7-4.5 36.8-20.1 8.6-16.5 1.4-34.4 22.5-43.8-9.6 8.1-14.7 19.5-8.7 34.4-2.3-21.9 20.6-25.5 24.3-40.5 0.6 11.5-7.2 21.2-14.5 25.9 10.3-3.4 19.2-9 23.4-21.8 6.9 21.4-5.3 38.5-12.9 38.5-2.6 0-4.5-1.7-4.5-4.2 0-6.5 11.6-6.5 14.6-18.9-5.3 10.8-25.6 8.9-25.6 20.8 0 9.7 13.6 14 22.4 8-6.4 8.3-21.3 8.6-25.5-1.4-0.7 4.3 1.3 10.8 7.5 13.1 7 2.7 13.5-2.5 13.5-2.5-7.6 11-20.9 3.7-34.1 3.9-10.9 0.2-18.1 5.8-21.3 11.2 3-1.5 4.6-1.9 7.6-2-6.3 3.9-10.8 12.8-9 21.5 1.3-6.2 8.6-10.7 22.4-11.6 15.6-1.1 23.8-3.6 29.1-9.3-11.2 5-28.9-1.9-41 6 7.5-8.5 23.9-6.1 35.7-8 20.7-3.3 33.3-38.3 31.7-53.6 5.7 23.4-9.5 36.2-12.8 49.1-3.6 14.1 3.4 23.8 9.9 28.8-10.3-15.4 7.4-24.6 4.6-44.4 5.2 19.2-4.4 24.7-4.4 34.6 0 9.8 8.6 13 10.3 25.5 1.7-12.6 10.3-15.8 10.3-25.5 0-9.9-9.7-15.4-4.4-34.6-2.8 19.7 14.9 29 4.6 44.4 6.6-5 13.6-14.7 9.9-28.8-3.3-12.9-18.4-25.7-12.8-49.1-1.6 15.3 11 50.3 31.7 53.6 11.8 1.9 28.3-0.6 35.7 8-12.1-7.9-29.8-1.1-41-6 5.3 5.7 13.5 8.2 29.1 9.3 13.8 1 21.1 5.4 22.4 11.6 1.8-8.7-2.8-17.6-9-21.5 3 0.1 4.7 0.5 7.6 2-3.2-5.4-10.4-11-21.3-11.2-13.1-0.2-26.4 7.1-34.1-3.9 0 0 6.5 5.2 13.5 2.5 6.1-2.4 8.1-8.8 7.5-13.1-4.3 10-19.2 9.8-25.6 1.4 8.7 6.1 22.4 1.8 22.4-8 0-11.9-20.2-9.9-25.5-20.8 3 12.4 14.6 12.4 14.6 18.9 0 2.5-1.9 4.2-4.5 4.2-7.6 0-19.8-17.1-12.9-38.5 4.2 12.8 13.1 18.5 23.4 21.8-7.4-4.7-15.2-14.4-14.5-25.9 3.7 14.9 26.6 18.5 24.3 40.5 6-14.9 0.9-26.4-8.7-34.4 21 9.4 13.9 27.3 22.5 43.8 8.1 15.6 25.1 20.6 36.8 20.1-5.7-2.1-12.8-6.3-17.2-22.2-2.9-10.5-4.8-20.3-17-27.1 7.7 12.3 4.5 25.7 14.9 36.7-13.9-9.8-10.5-27.7-21.1-41.7 10.6 3.4 19.7 9.4 23.6 18.6-2.9-15.8-19.7-32.5-49.1-36.5 30.3-1.3 36.2 15.6 51.5 16.2 9.7 0.4 18.1-8.4 28-13.7-12.1 3.1-31.1 11.3-41.2-2.1 0 0 6.2 5.3 18.3 3.7 12.3-1.6 23.5-9.4 54.1-11.4-30.7-2-41.8-9.8-54.1-11.4-12.1-1.5-18.3 3.7-18.3 3.7 10.1-13.5 29.1-5.2 41.2-2.1-9.9-5.3-18.4-14.1-28-13.7-15.3 0.6-21.2 17.5-51.5 16.2zm33.4 7.3c4.6-1.2 8.6-3.8 14.5-3.8 7.1 0 11.1 2.8 16.7 3.8-5.7 1-9.6 3.8-16.7 3.8-5.9-0.1-9.9-2.6-14.5-3.8zm-72.2 90.3c0-5.1 3-8.4 3-12.1 0 3.7 3 7 3 12.1 0 4.6-2.3 6.7-3 11.4-0.8-4.8-3-6.9-3-11.4zm-66.2-90.3c-4.6 1.2-8.6 3.8-14.5 3.8-7.1 0-11.1-2.8-16.7-3.8 5.7-1 9.6-3.8 16.7-3.8 5.8 0 9.9 2.5 14.5 3.8zm72.2-90.3c0 5.1-3 8.4-3 12.1 0-3.7-3-7-3-12.1 0-4.6 2.2-6.7 3-11.4 0.7 4.7 3 6.8 3 11.4zm42 90.3c-9.9 0-24.1 5-35 3 3.4 2.1 5 3.7 7.5 6.7-4.4-0.4-6.8-0.8-10.1-2.3 2.7 6 3.2 9.4 3.7 15.4-3.1-3.6-4.6-5.7-6.6-10.6 0.7 12.4-4.3 15.2-4.6 31.8-0.4-16.5-5.3-19.3-4.6-31.8-1.9 4.9-3.5 7.1-6.6 10.6 0.5-6 1.1-9.4 3.7-15.4-3.4 1.5-5.7 1.9-10.1 2.3 2.5-3.1 4-4.6 7.5-6.7-10.9 2-25-3-35-3 9.9 0 24.1-5 35-3-3.4-2.1-5-3.7-7.5-6.7 4.4 0.4 6.8 0.8 10.1 2.3-2.7-6-3.2-9.4-3.7-15.4 3.1 3.6 4.6 5.7 6.6 10.6-0.7-12.4 4.3-15.2 4.6-31.8 0.4 16.5 5.3 19.3 4.6 31.8 1.9-4.9 3.5-7.1 6.6-10.6-0.5 6-1.1 9.4-3.7 15.4 3.4-1.5 5.7-1.9 10.1-2.3-2.5 3.1-4 4.6-7.5 6.7 11-2 25.1 3 35 3z"/>
				<path class="st1" d="m437.8-316.8c-5.5 4.6-10.7 12.5-11.4 22.8-1.1-10.2-3.2-18.1-8.2-24 0 0 6.3 3.1 8.6 9.2 2.9-5.3 11-8 11-8z"/>
				<path class="st1" d="m451.8-367.7c-1.2 6-6.3 11.2-12.9 13.7 2.7-7 1.7-13.8-2.2-19.8 0.9 7.8-1.5 13.2-5.8 18 1.4-4.8 1.2-9.3-1.1-13.9 0.9 8.5-6.2 12.8-15.6 18.4-12.7 7.6-17.3 16-19.3 27.2 3.5-6.9 9.9-13.1 27.9-17.3 22.3-5 30.4-12.2 29-26.3z"/>
					<linearGradient id="q" x1="71636" x2="71613" y1="20972" y2="20980" gradientTransform="matrix(-1 0 0 -1 72085 20693)" gradientUnits="userSpaceOnUse">
					<stop stop-color="#FAA61A" offset=".2331"/>
					<stop stop-color="#FFC20E" offset=".7607"/>
				</linearGradient>
				<path class="st18" d="m451.5-275.5c4.7-4.6 6.9-12.2 7.3-21.7 0.5-12.5 5.4-17.7 13.3-18.5-11.8 4.6-4.4 17.1-7.9 25.8 6.4-4.8 4.4-20.7 17.6-21.4-9.8 3.2-2.8 16.7-9.3 24.5 7.8-0.1 11.4 6.1 21.5 3.2-4.7 3.6-10 5.9-18.8 5.9 6.3 3.9 9 8.6 11.3 15.3-10.1-10.5-24.8-14.6-35-13.1z"/>
					<linearGradient id="p" x1="-39115" x2="-39138" y1="20972" y2="20980" gradientTransform="matrix(1 0 0 -1 39407 20693)" gradientUnits="userSpaceOnUse">
					<stop stop-color="#FAA61A" offset=".2331"/>
					<stop stop-color="#FFC20E" offset=".7607"/>
				</linearGradient>
				<path class="st19" d="m288.4-275.5c-4.7-4.6-6.9-12.2-7.3-21.7-0.5-12.5-5.4-17.7-13.3-18.5 11.8 4.6 4.4 17.1 7.9 25.8-6.4-4.8-4.4-20.7-17.6-21.4 9.8 3.2 2.8 16.7 9.3 24.5-7.8-0.1-11.4 6.1-21.5 3.2 4.7 3.6 10 5.9 18.8 5.9-6.3 3.9-9 8.6-11.3 15.3 10.2-10.5 24.9-14.6 35-13.1z"/>
					<linearGradient id="o" x1="71744" x2="71744" y1="-53839" y2="-53810" gradientTransform="matrix(-1 0 0 1 72085 53676)" gradientUnits="userSpaceOnUse">
					<stop stop-color="#FAA61A" offset=".2331"/>
					<stop stop-color="#FFC20E" offset=".7607"/>
				</linearGradient>
				<path class="st20" d="m315.1-127.1c2.6-13.8 25.4-16.3 30.3-34.1 3.8 19.1 21.3 19.9 21.5 33.1-3.2-7.8-10.8-5.8-15.9-12.1 0.8 6.2 4.6 11.9 12.4 15.1-7.7 1.1-15.6-1.8-19.1-9.6-2.6 4.2-2.8 8.4-0.7 13.9-4.7-3.6-7.5-9.3-5.7-16.6-7.2 7.4-17.8 3.3-22.8 10.3z"/>
				<path class="st5" d="m388.2-248.3c-4.3 0.7-9.4 3.2-14.1 1.2 2.3 1.8 1.1 3.5 2.5 5.2-1.9-1.4-3.5-0.5-5-2.7 1.5 5.3-0.5 8.1-1.6 14.1-1.1-6-3.2-8.8-1.6-14.1-1.5 2.2-3.1 1.4-5 2.7 1.4-1.7 0.2-3.4 2.5-5.2-4.7 2-9.9-0.6-14.1-1.2 4.3-0.7 9.4-3.2 14.1-1.2-2.3-1.8-1.1-3.5-2.5-5.2 1.9 1.4 3.5 0.5 5 2.7-1.5-5.3 0.5-8.1 1.6-14.1 1.1 6 3.2 8.8 1.6 14.1 1.5-2.2 3.1-1.4 5-2.7-1.4 1.7-0.2 3.4-2.5 5.2 4.7-2 9.8 0.5 14.1 1.2z"/>
					<linearGradient id="n" x1="-39167" x2="-39167" y1="20884" y2="20912" gradientTransform="matrix(1 0 0 -1 39343 20679)" gradientUnits="userSpaceOnUse">
					<stop stop-color="#FAA61A" offset=".2331"/>
					<stop stop-color="#FFC20E" offset=".7607"/>
				</linearGradient>
				<path class="st21" d="m201.5-240c-2.6 13.8-25.4 16.3-30.3 34.1-3.8-19.1-21.3-19.9-21.5-33.1 3.2 7.8 10.8 5.8 15.9 12.1-0.8-6.2-4.6-11.9-12.4-15.1 7.7-1.1 15.6 1.8 19.1 9.6 2.6-4.2 2.8-8.4 0.7-13.9 4.7 3.6 7.5 9.3 5.7 16.6 7.2-7.3 17.9-3.3 22.8-10.3z"/>
					<radialGradient id="l" cx="-39260" cy="-53795" r="133.35" gradientTransform="translate(39407 53676)" gradientUnits="userSpaceOnUse">
					<stop stop-color="#58AB40" offset=".3479"/>
					<stop stop-color="#80C342" offset=".7607"/>
				</radialGradient>
				<path class="st22" d="m182.5-126c29.4-4 46.2-20.8 49.1-36.6-3.9 9.3-13 15.2-23.6 18.6 10.6-14 7.2-31.9 21.1-41.7-10.4 11-7.2 24.5-14.9 36.7 12.3-6.9 14.1-16.7 17-27.1 4.4-15.8 11.5-20.1 17.2-22.2-11.7-0.4-28.7 4.5-36.8 20.1-8.6 16.5-1.4 34.4-22.5 43.8 9.6-8.1 14.7-19.5 8.7-34.4 2.3 21.9-20.6 25.5-24.3 40.5-0.6-11.5 7.2-21.2 14.5-25.9-10.3 3.4-19.2 9-23.4 21.8-6.9-21.4 5.3-38.5 12.9-38.5 2.6 0 4.5 1.7 4.5 4.2 0 6.4-11.6 6.4-14.6 18.9 5.3-10.8 25.5-8.9 25.5-20.8 0-9.7-13.6-14-22.4-8 6.4-8.3 21.3-8.6 25.6 1.4 0.7-4.3-1.3-10.8-7.5-13.1-7-2.7-13.5 2.5-13.5 2.5 7.6-11 20.9-3.7 34.1-3.9 10.9-0.2 18.1-5.8 21.3-11.2-3 1.5-4.6 1.9-7.6 2 6.3-3.9 10.8-12.8 9-21.5-1.3 6.3-8.6 10.7-22.4 11.6-15.6 1.1-23.8 3.6-29.1 9.3 11.2-5 28.9 1.9 41-6-7.5 8.5-23.9 6.1-35.7 8-20.7 3.3-33.3 38.3-31.7 53.6-5.7-23.4 9.5-36.2 12.8-49.1 3.6-14.1-3.4-23.8-9.9-28.8 10.3 15.4-7.4 24.6-4.6 44.4-5.2-19.2 4.4-24.7 4.4-34.6 0-9.8-8.6-13-10.3-25.5-1.7 12.6-10.3 15.8-10.3 25.5 0 9.9 9.7 15.4 4.4 34.6 2.8-19.7-14.9-29-4.6-44.4-6.6 5-13.6 14.7-9.9 28.8 3.3 12.9 18.4 25.7 12.8 49.1 1.6-15.3-11-50.3-31.7-53.6-11.8-1.9-28.3 0.6-35.7-8 12 7.9 29.8 1.1 41 6-5.3-5.7-13.5-8.2-29.1-9.3-13.8-1-21.1-5.4-22.4-11.6-1.8 8.7 2.8 17.6 9 21.5-3-0.1-4.7-0.5-7.6-2 3.2 5.4 10.4 11 21.3 11.2 13.1 0.2 26.4-7.1 34.1 3.9 0 0-6.5-5.2-13.5-2.5-6.1 2.4-8.1 8.8-7.5 13.1 4.3-10 19.2-9.8 25.5-1.4-8.7-6.1-22.4-1.8-22.4 8 0 11.9 20.2 9.9 25.6 20.8-3-12.4-14.6-12.4-14.6-18.9 0-2.5 1.9-4.2 4.5-4.2 7.6 0 19.8 17.1 12.9 38.5-4.2-12.8-13.1-18.5-23.4-21.8 7.4 4.7 15.2 14.4 14.5 25.9-3.3-15-26.2-18.5-23.9-40.5-6 14.9-0.9 26.4 8.7 34.4-21-9.4-13.9-27.3-22.5-43.8-8.1-15.6-25.1-20.6-36.8-20.1 5.7 2.1 12.8 6.3 17.2 22.2 2.9 10.5 4.8 20.3 17 27.1-7.7-12.3-4.5-25.7-14.9-36.7 13.9 9.8 10.5 27.7 21.1 41.7-10.6-3.4-19.7-9.4-23.6-18.6 2.9 15.8 19.7 32.5 49.1 36.6-30.3 1.3-36.2-15.6-51.5-16.2-9.7-0.4-18.1 8.4-28 13.7 12.1-3.1 31.1-11.3 41.2 2.1 0 0-6.2-5.3-18.3-3.7-12.3 1.6-23.5 9.4-54.1 11.4 30.7 2 41.8 9.8 54.1 11.4 12.1 1.5 18.3-3.7 18.3-3.7-10.1 13.5-29.1 5.2-41.2 2.1 9.9 5.3 18.4 14.1 28 13.7 15.3-0.6 21.1-17.5 51.5-16.2-29.4 4-46.2 20.8-49.1 36.5 3.9-9.2 13-15.2 23.6-18.6-10.6 14-7.2 31.9-21.1 41.7 10.4-11 7.2-24.5 14.9-36.7-12.3 6.9-14.1 16.7-17 27.1-4.4 15.8-11.5 20.1-17.2 22.2 11.7 0.4 28.7-4.5 36.8-20.1 8.6-16.5 1.4-34.4 22.5-43.8-9.6 8.1-14.7 19.5-8.7 34.4-2.3-21.9 20.6-25.5 24.3-40.5 0.6 11.5-7.2 21.2-14.5 25.9 10.3-3.4 19.2-9 23.4-21.8 6.9 21.4-5.3 38.5-12.9 38.5-2.6 0-4.5-1.7-4.5-4.2 0-6.5 11.6-6.5 14.6-18.9-5.3 10.8-25.6 8.9-25.6 20.8 0 9.7 13.6 14 22.4 8-6.4 8.3-21.3 8.6-25.5-1.4-0.7 4.3 1.3 10.8 7.5 13.1 7 2.7 13.5-2.5 13.5-2.5-7.6 11-20.9 3.7-34.1 3.9-10.9 0.2-18.1 5.8-21.3 11.2 3-1.5 4.6-1.9 7.6-2-6.3 3.9-10.8 12.8-9 21.5 1.3-6.2 8.6-10.7 22.4-11.6 15.6-1.1 23.8-3.6 29.1-9.3-11.2 5-28.9-1.9-41 6 7.5-8.5 23.9-6.1 35.7-8 20.7-3.3 33.3-38.3 31.7-53.6 5.7 23.4-9.5 36.2-12.8 49.1-3.6 14.1 3.4 23.8 9.9 28.8-10.3-15.4 7.4-24.6 4.6-44.4 5.2 19.2-4.4 24.7-4.4 34.6 0 9.8 8.6 13 10.3 25.5 1.7-12.6 10.3-15.8 10.3-25.5 0-9.9-9.7-15.4-4.4-34.6-2.8 19.7 14.9 29 4.6 44.4 6.6-5 13.6-14.7 9.9-28.8-3.3-12.9-18.4-25.7-12.8-49.1-1.6 15.3 11 50.3 31.7 53.6 11.8 1.9 28.3-0.6 35.7 8-12.1-7.9-29.8-1.1-41-6 5.3 5.7 13.5 8.2 29.1 9.3 13.8 1 21.1 5.4 22.4 11.6 1.8-8.7-2.8-17.6-9-21.5 3 0.1 4.7 0.5 7.6 2-3.2-5.4-10.4-11-21.3-11.2-13.1-0.2-26.4 7.1-34.1-3.9 0 0 6.5 5.2 13.5 2.5 6.1-2.4 8.1-8.8 7.5-13.1-4.3 10-19.2 9.8-25.6 1.4 8.7 6.1 22.4 1.8 22.4-8 0-11.9-20.2-9.9-25.5-20.8 3 12.4 14.6 12.4 14.6 18.9 0 2.5-1.9 4.2-4.5 4.2-7.6 0-19.8-17.1-12.9-38.5 4.2 12.8 13.1 18.5 23.4 21.8-7.4-4.7-15.2-14.4-14.5-25.9 3.7 14.9 26.6 18.5 24.3 40.5 6-14.9 0.9-26.4-8.7-34.4 21 9.4 13.9 27.3 22.5 43.8 8.1 15.6 25.1 20.6 36.8 20.1-5.7-2.1-12.8-6.3-17.2-22.2-2.9-10.5-4.8-20.3-17-27.1 7.7 12.3 4.5 25.7 14.9 36.7-13.9-9.8-10.5-27.7-21.1-41.7 10.6 3.4 19.7 9.4 23.6 18.6-2.9-15.8-19.7-32.5-49.1-36.5 30.3-1.3 36.2 15.6 51.5 16.2 9.7 0.4 18.1-8.4 28-13.7-12.1 3.1-31.1 11.3-41.2-2.1 0 0 6.2 5.3 18.3 3.7 12.3-1.6 23.5-9.4 54.1-11.4-30.7-2-41.8-9.8-54.1-11.4-12.1-1.5-18.3 3.7-18.3 3.7 10.1-13.5 29.1-5.2 41.2-2.1-9.9-5.3-18.4-14.1-28-13.7-15.7 0.6-21.6 17.5-51.9 16.2zm33.4 7.3c4.6-1.2 8.6-3.8 14.5-3.8 7.1 0 11.1 2.8 16.7 3.8-5.7 1-9.6 3.8-16.7 3.8-5.9-0.1-9.9-2.6-14.5-3.8zm-72.3 90.3c0-5.1 3-8.4 3-12.1 0 3.7 3 7 3 12.1 0 4.6-2.3 6.7-3 11.4-0.7-4.8-3-6.9-3-11.4zm-66.1-90.3c-4.6 1.2-8.6 3.8-14.5 3.8-7.1 0-11.1-2.8-16.7-3.8 5.7-1 9.6-3.8 16.7-3.8 5.8 0 9.8 2.5 14.5 3.8zm72.2-90.3c0 5.1-3 8.4-3 12.1 0-3.7-3-7-3-12.1 0-4.6 2.2-6.7 3-11.4 0.7 4.7 3 6.8 3 11.4zm42 90.3c-9.9 0-24.1 5-35 3 3.4 2.1 5 3.7 7.5 6.7-4.4-0.4-6.8-0.8-10.1-2.3 2.7 6 3.2 9.4 3.7 15.4-3.1-3.6-4.6-5.7-6.6-10.6 0.7 12.4-4.3 15.2-4.6 31.8-0.4-16.5-5.3-19.3-4.6-31.8-1.9 4.9-3.5 7.1-6.6 10.6 0.5-6 1.1-9.4 3.7-15.4-3.4 1.5-5.7 1.9-10.1 2.3 2.5-3.1 4-4.6 7.5-6.7-10.9 2-25-3-35-3 9.9 0 24.1-5 35-3-3.4-2.1-5-3.7-7.5-6.7 4.4 0.4 6.8 0.8 10.1 2.3-2.7-6-3.2-9.4-3.7-15.4 3.1 3.6 4.6 5.7 6.6 10.6-0.7-12.4 4.3-15.2 4.6-31.8 0.4 16.5 5.3 19.3 4.6 31.8 1.9-4.9 3.5-7.1 6.6-10.6-0.5 6-1.1 9.4-3.7 15.4 3.4-1.5 5.7-1.9 10.1-2.3-2.5 3.1-4 4.6-7.5 6.7 10.9-2 25.1 3 35 3z"/>
				<path class="st1" d="m214.5-187.2c-5.5 4.6-10.7 12.5-11.4 22.8-1.1-10.2-3.2-18.1-8.2-24 0 0 6.3 3.1 8.6 9.2 2.9-5.3 11-8 11-8z"/>
				<path class="st1" d="m228.5-238.1c-1.2 6-6.3 11.2-12.9 13.7 2.7-7 1.7-13.8-2.2-19.8 0.9 7.8-1.5 13.2-5.8 18 1.4-4.8 1.2-9.3-1.1-13.9 0.9 8.5-6.2 12.8-15.6 18.4-12.7 7.6-17.3 16-19.3 27.2 3.5-6.9 9.9-13.1 27.9-17.3 22.3-5 30.4-12.2 29-26.3z"/>
					<linearGradient id="k" x1="71860" x2="71837" y1="20842" y2="20850" gradientTransform="matrix(-1 0 0 -1 72085 20693)" gradientUnits="userSpaceOnUse">
					<stop stop-color="#FAA61A" offset=".2331"/>
					<stop stop-color="#FFC20E" offset=".7607"/>
				</linearGradient>
				<path class="st23" d="m228.2-145.9c4.7-4.6 6.9-12.2 7.3-21.7 0.5-12.5 5.4-17.7 13.3-18.5-11.8 4.6-4.4 17.1-7.9 25.8 6.4-4.8 4.4-20.7 17.6-21.4-9.8 3.2-2.8 16.7-9.3 24.5 7.8-0.1 11.4 6.1 21.5 3.2-4.7 3.6-10 5.9-18.8 5.9 6.3 3.9 9 8.6 11.3 15.3-10.1-10.5-24.9-14.6-35-13.1z"/>
				<path class="st5" d="m164.9-118.7c-4.3 0.7-9.4 3.2-14.1 1.2 2.3 1.8 1.1 3.5 2.5 5.2-1.9-1.4-3.5-0.5-5-2.7 1.5 5.3-0.5 8.1-1.6 14.1-1.1-6-3.2-8.8-1.6-14.1-1.5 2.2-3.1 1.4-5 2.7 1.4-1.7 0.2-3.4 2.5-5.2-4.7 2-9.9-0.6-14.1-1.2 4.3-0.7 9.4-3.2 14.1-1.2-2.3-1.8-1.1-3.5-2.5-5.2 1.9 1.4 3.5 0.5 5 2.7-1.5-5.3 0.5-8.1 1.6-14.1 1.1 6 3.2 8.8 1.6 14.1 1.5-2.2 3.1-1.4 5-2.7-1.4 1.7-0.2 3.4-2.5 5.2 4.7-2 9.8 0.5 14.1 1.2z"/>
</pattern>
<g class="st24">
	<ellipse class="st25" cx="63.9" cy="64.1" rx="63.6" ry="62.8"/>
	<pattern id="i" class="st24" xlink:href="#j" patternTransform="matrix(0 -.7 -.7 0 -16405 -667.57)">
	</pattern>
	<ellipse class="st26" cx="63.9" cy="64.1" rx="63.6" ry="62.8"/>
</g>
	<path class="st27" d="m89.4 129c-9.3-2.7-15.4-11.6-16-22.3-0.2-5.6 1.2-10.7 2-16.2 0.9-6.4-3.5-11.7-10-12.5-3.8-0.4-7.6 0.4-11.1 2-0.7 0.4-1.4 0.9-2 1.4-1.1 1-1.6 2.2-1 3.6s2 1.1 3.2 1c1.9-0.1 3.5-1.1 4.9-2.1 3.1-2.1 5.7-1.7 8 1.2 4.1 5.2 3.1 12.8-2.2 17.6-4.2 3.7-9.4 5.4-14.7 6.7-9.4 2.2-18.9 2.6-28.5 1.4-3.3-0.4-6.7-1.1-10-2-1.7-0.5-2.1-1.2-2.1-3 0.5-10.7 0.7-21.5 1.4-32.2 0.1-2.6-1-2.8-3-2.6s-3.6 1-5.1 2.3c-1.4 1.2-3 2.1-4.9 1.9-1.2-0.1-2.3-0.7-2.8-2-0.4-1.1 0.1-2.2 1-3 1.6-1.7 3.7-2.3 5.9-2.5s4.4-0.1 6.7-0.2c1 0 1.7 0 1.2-1.5-2.2-8-1-11.3 5.8-16.2 18.1-12.8 42.7-13.4 61.3-1.2 4.4 3 9.1 5.4 13.8 7.9 1.4 0.7 3.5 1.6 3 3.3-0.5 1.9-2.7 1.2-4.2 1.1-3.2-0.1-6-1.1-8.6-3.2-1.7-1.5-3.5-2.7-4.9-4.3-13.2-14.1-44-14.8-58.5 3-2.2 2.7-1.7 4.9-0.6 7.6 1.1 2.6 2.7 3.5 5.6 3.5 10.1-0.2 20.1-0.6 30.2 0 5.8 0.2 11.3-0.6 17-0.9 6.9-0.2 13.9-1.2 20.6 1.2 5.6 2 9 5.9 9.7 11.8 0.6 5.7-0.5 10.6-5.7 13.9-0.2 0.1-0.5 0.2-1.4 0.6 4.1 1.2 7.2 2.6 10.4 4.6-0.5-5.6-0.6-10.7-0.2-15.9 1.5-21.8 24.2-25.8 36.5-16.9 2.3 1.6 4.6 3.3 6.7 5.2 0.7 0.7 1.5 1.5 1 2.6-0.5 1-1.6 0.9-2.5 0.7-4.3-0.4-8.3-2-11.1-5.4-5.7-6.7-15.9-5.4-19.6 2.7-2.1 4.4-2.6 9.3-3 14.1-0.4 6 0.6 11.8 3 17.4 0.9 2.2 0.1 3-2 3.5-4.3 0.7-8 0.5-11-3.5-2.7-3.6-7-4.2-11.2-4.3-3.2-0.1-5.7-0.7-7.4-4.6-2.8 13-2 24.3 6.4 34.7zm-46.7-39c0.2 4.1 0.7 7.8 2.1 11.2 0.2 0.7 1 1.2-0.1 2-3.7 2.8-8.6 2.5-11.7-0.9-3.3-3.6-6.9-6.8-11.6-8.3-1-0.4-2.5-1.1-2.5 1.1v13.6c0 1.1 0.2 1.5 1.6 1.5 4.1-0.2 8 0 12.1-0.4 7.8-0.6 15.3-2.2 21.6-7.3 4.2-3.3 6.3-7.6 6-13.2-5.8 2-11.5 3.8-17.5 0.7zm41.2 0.4c2-0.6 3.6-1.6 5.1-2.8 4.9-3.8 4.9-10.4-0.2-14.1-6.3-4.7-17.9-4.6-25-0.1 4.8 1 9.6 1.6 14.1 3.7 5.1 2.3 6.5 4.8 6.2 10.4-0.2 0.8-0.2 1.7-0.2 2.9zm-65-7.3c2.2-1 3.9-1.9 5.8-2.7 3.5-1.7 6.7-3.8 9.5-6.3 0.7-0.7 1.1-1.6 0.9-2.5-0.2-1.1-1.4-0.6-2-0.6h-12.1c-1.1 0-2.1 0-2 1.5-0.1 3.5-0.1 6.8-0.1 10.6zm8.2 5.7c2.5 2.2 4.8 4.3 7.6 6.9-0.6-4.6-0.4-8.5-0.1-12.8-2.7 2.1-5 3.9-7.5 5.9zm15.8-8.8c2.6-3.9 6.5-5.9 10.5-8.4-10.7-1-10.9-0.9-10.9 7.8 0 0.1 0.2 0.3 0.4 0.6z"/>
	<path class="st27" d="m98.7 107.8c0 2.5-1.4 3.7-3.8 3.3-3.2-0.5-6.3-1.1-9.4-1.7-1.1-0.2-2.2-0.9-2.1-2.2 0-1.5 0.7-3 2.2-3.2 3.8-0.9 7.8-1 11.5 0.5 1.2 0.6 1.4 1.9 1.6 3.3z"/>
<path class="st27" d="m33.9 37.8-10.9-17.2 0.7 20.4v3.3s-0.2 1.4-0.7 2.1-1.1 1.1-2.1 1.5c-0.8 0.1-1.5 0.1-2.1 0s-1.1-0.5-1.6-0.9c-0.5-0.5-0.9-1-1.4-1.7s-0.8-1.3-1.1-1.8l-11.6-19.6c-0.7-1.1-1.1-2.1-1.4-2.6-0.2-0.8-0.2-1.6 0.2-2.3 0.5-0.7 1-1.3 1.8-1.5 1.1-0.3 2.1-0.2 2.6 0.3 0.6 0.6 1.3 1.6 2.1 2.9l9.8 17.1-0.7-18.5c-0.1-1.4-0.1-2.5 0-3.3s0.3-1.5 0.8-2.2 1.3-1.1 2.3-1.5 2-0.3 2.8 0 1.4 0.8 1.7 1.4c0.5 0.6 1 1.5 1.8 2.8l9.9 15.7-1.5-19.6c-0.1-1-0.1-1.8-0.1-2.4s0.1-1.1 0.5-1.7c0.3-0.6 0.9-0.9 1.7-1.3 0.8-0.2 1.6-0.2 2.4 0.2 0.8 0.3 1.3 0.9 1.5 1.8 0.2 0.6 0.3 1.6 0.3 3l1.3 22.7c0.1 1.5 0.1 2.6 0.1 3.4 0 0.7-0.2 1.5-0.7 2.1s-1.1 1.1-2.2 1.5c-0.9 0.3-1.8 0.3-2.5 0s-1.3-0.7-1.7-1.3c-0.4-0.5-1-1.5-2-2.8z"/>
<path class="st27" d="m66.2 28.3h-15.3c0 1.8 0.4 3.4 1 4.7 0.7 1.3 1.6 2.4 2.8 3.1s2.5 1 3.8 1c0.9 0 1.8-0.1 2.5-0.3 0.7-0.1 1.5-0.6 2.2-1s1.3-1 2.1-1.5c0.6-0.6 1.5-1.3 2.4-2.2 0.4-0.3 1-0.6 1.8-0.6 0.7 0 1.5 0.1 1.9 0.6 0.4 0.4 0.7 1 0.7 1.9 0 0.7-0.3 1.5-0.9 2.5-0.6 0.9-1.3 1.9-2.5 2.8s-2.5 1.6-4.3 2.2-3.7 0.9-5.9 0.9c-5 0-9-1.5-11.8-4.3-2.8-2.9-4.1-6.8-4.1-11.6 0-2.4 0.3-4.4 1-6.5 0.7-1.9 1.8-3.7 2.9-5.1 1.3-1.5 2.9-2.5 4.9-3.2 1.9-0.7 4.1-1.2 6.5-1.2 3.1 0 5.7 0.6 7.9 1.9s3.8 2.9 4.9 5c1 2.1 1.6 4.1 1.6 6.3 0 1.9-0.6 3.2-1.8 3.8-0.6 0.5-2.2 0.8-4.3 0.8zm-15.3-4.4h14.3c-0.1-2.6-0.9-4.7-2.2-6s-2.9-2.1-5-2.1c-1.9 0-3.5 0.7-4.9 2.1-1.1 1.3-1.9 3.3-2.2 6z"/>
<path class="st27" d="m88.4 18.4-4.7 9.4c1.7-0.6 3.4-0.9 5-1 1.5-0.1 3.1 0.4 5 1.4 2.1 1.1 3.6 2.4 4.7 4.2 1 1.7 1.5 3.8 1.5 6-0.1 2.3-0.8 4.7-2.1 7.2-0.9 1.8-2 3.5-3.3 4.7-1.2 1.3-2.6 2.3-4.1 3s-3 1.1-4.6 1-3.1-0.4-4.7-1.2c-0.9-0.5-1.8-1-2.5-1.7-0.7-0.6-1.2-1.3-1.6-2-0.4-0.6-0.7-1.2-0.9-1.9-0.3-0.6-0.5-1.4-0.7-2.5l-0.3 0.6c-0.6 1.2-1.3 2-2.2 2.2-0.9 0.3-1.7 0.3-2.5-0.1-0.9-0.5-1.4-1.2-1.6-2s0-1.9 0.5-3.1l13.5-26.8c0.6-1.3 1.3-2.1 2.2-2.4s1.6-0.3 2.5 0.1c0.9 0.5 1.6 1.2 1.7 2-0.1 0.8-0.2 1.7-0.8 2.9zm-8.9 18.4c-1.2 2.4-1.6 4.6-1.1 6.5s1.5 3.2 3.4 4.2c1.5 0.8 3.2 0.8 5 0.1 1.9-0.8 3.4-2.4 4.7-4.9 0.8-1.6 1.3-3.1 1.4-4.5s-0.1-2.7-0.6-3.8-1.4-1.9-2.5-2.4c-1.2-0.6-2.4-0.8-3.6-0.7-1.3 0.2-2.4 0.8-3.6 1.7-1.3 0.8-2.3 2.2-3.1 3.8z"/>
</svg>
